<?xml version="1.0" encoding="utf-8"?>
<!-- Generator: Adobe Illustrator 26.5.1, SVG Export Plug-In . SVG Version: 6.00 Build 0)  -->
<svg version="1.1" id="Layer_1" xmlns="http://www.w3.org/2000/svg" xmlns:xlink="http://www.w3.org/1999/xlink" x="0px" y="0px"
	 viewBox="0 0 1920 1080" style="enable-background:new 0 0 1920 1080;" xml:space="preserve">
<style type="text/css">
	.st0{fill:#FFF2A1;}
	.st1{fill:#0063B2;}
	.st2{fill:none;stroke:#231F20;stroke-linecap:round;stroke-miterlimit:10;}
	.st3{fill:#0063B2;stroke:#0063B2;stroke-linecap:round;stroke-miterlimit:10;}
	.st4{fill:#84A3FF;}
	.st5{fill:none;stroke:#84A3FF;stroke-linecap:round;stroke-miterlimit:10;}
	.st6{fill:#0063B2;stroke:#84A3FF;stroke-linecap:round;stroke-miterlimit:10;}
	.st7{font-family:'Dyslexie-Regular';}
	.st8{font-size:60.7096px;}
	.st9{fill:#EB47C7;stroke:#EB47C7;stroke-miterlimit:10;}
	.st10{fill:#00C257;stroke:#00C257;stroke-miterlimit:10;}
	.st11{fill:#EB5A47;stroke:#FFC4A3;stroke-miterlimit:10;}
	.st12{fill:#0063B2;stroke:#66BBFF;stroke-miterlimit:10;}
	.st13{fill:#8B00C2;stroke:#D366FF;stroke-miterlimit:10;}
</style>
<g id="Layer_7">
	<rect x="-172.96" y="-232.23" class="st0" width="2334.64" height="1568.68"/>
</g>
<g id="Layer_1_00000015356717456124158180000006150982056309536692_">
	<g>
		<g>
			<path class="st1" d="M34.44,696.02c0.08-1.2,0.19-3.34,0.31-6.41c0.12-3.07,0.27-6.84,0.44-11.3c0.17-4.46,0.33-9.52,0.5-15.18
				s0.31-11.68,0.44-18.05c0.12-6.37,0.27-12.99,0.44-19.85s0.33-13.74,0.5-20.64c0.58-24.14,1.16-51.02,1.74-80.64h26.54
				l-3.12,89.41c2.41-3.07,5.07-5.58,7.98-7.54c2.91-1.95,6.04-3.49,9.41-4.61c3.36-1.12,6.9-1.91,10.59-2.36
				c3.7-0.45,7.54-0.68,11.53-0.68c5.73,0,10.67,0.41,14.83,1.24c4.15,0.83,7.81,2.02,10.97,3.6c3.16,1.57,6.02,3.52,8.6,5.85
				c2.57,2.33,5.15,4.99,7.73,7.98c5.23,6.07,9.68,13.23,13.34,21.48s6.81,17.51,9.47,27.78c2.66,10.65,3.51,20.68,2.56,30.08
				c-0.96,9.41-4.3,17.71-10.03,24.91c-2.74,3.37-6.04,6.47-9.91,9.28c-3.86,2.81-8.1,5.23-12.71,7.25s-9.51,3.6-14.71,4.72
				c-5.19,1.12-10.53,1.69-16.01,1.69c-0.67,0-1.29,0-1.87,0s-1.2-0.04-1.87-0.11c-5.82-0.23-11.18-0.96-16.08-2.19
				c-4.9-1.24-9.35-3.13-13.33-5.68c-2.41-1.5-4.42-3.21-6.04-5.12s-3.26-4.03-4.92-6.35l-1.99,14.51H26.21
				c1.33-5.55,2.57-10.98,3.74-16.31c0.5-2.25,1-4.57,1.5-6.97c0.5-2.4,0.93-4.78,1.31-7.14c0.37-2.36,0.73-4.63,1.06-6.8
				C34.15,699.69,34.35,697.75,34.44,696.02z M137,701.08c1.41-1.95,2.66-4.44,3.74-7.48s1.81-6.5,2.18-10.4s0.31-8.08-0.19-12.54
				c-0.5-4.46-1.62-9.05-3.36-13.78c-1.5-4.12-2.89-7.76-4.17-10.91c-1.29-3.15-2.58-5.94-3.86-8.38c-1.29-2.44-2.58-4.59-3.86-6.47
				c-1.29-1.87-2.68-3.6-4.17-5.17c-1.99-2.1-3.93-3.82-5.8-5.17s-3.78-2.4-5.73-3.15c-1.95-0.75-3.99-1.27-6.11-1.57
				s-4.42-0.45-6.92-0.45c-3.74,0-7.21,0.45-10.41,1.35c-3.2,0.9-6.11,2.06-8.72,3.49c-2.62,1.42-4.94,3.06-6.98,4.89
				c-2.04,1.84-3.8,3.66-5.3,5.45c-1.74,2.25-3.14,4.37-4.17,6.35c-1.04,1.99-1.77,4.26-2.18,6.8c-0.42,2.55-0.62,5.53-0.62,8.94
				s0.12,7.67,0.37,12.76c0.17,3.97,0.33,7.67,0.5,11.08c0.17,3.41,0.52,6.62,1.06,9.62s1.37,5.83,2.49,8.49s2.8,5.19,5.05,7.59
				c2.57,2.7,5.32,4.85,8.22,6.47c2.91,1.61,6,2.83,9.28,3.66c3.28,0.83,6.75,1.35,10.41,1.57c3.66,0.23,7.48,0.34,11.47,0.34
				c1.91,0,4.22-0.39,6.92-1.18s5.42-1.84,8.16-3.15c2.74-1.31,5.27-2.76,7.6-4.33C134.22,704.23,135.92,702.66,137,701.08z"/>
			<path class="st1" d="M298.14,623.25c-1.5-1.2-2.97-2.27-4.42-3.2c-1.45-0.94-3.03-1.74-4.74-2.42c-1.7-0.68-3.57-1.18-5.61-1.52
				c-2.04-0.34-4.34-0.51-6.92-0.51c-3.24,0-6.11,0.43-8.6,1.29c-2.49,0.86-4.76,2.04-6.79,3.54c-2.04,1.5-3.91,3.28-5.61,5.34
				s-3.39,4.29-5.05,6.69c-2.41,3.6-4.22,7.14-5.42,10.63c-1.21,3.49-2.04,6.92-2.49,10.29c-0.46,3.37-0.67,6.73-0.62,10.06
				c0.04,3.34,0.06,6.66,0.06,9.95c0,1.65,0.04,3.86,0.12,6.63s0.17,5.85,0.25,9.22s0.19,6.96,0.31,10.74
				c0.12,3.79,0.23,7.55,0.31,11.3c0.25,8.62,0.5,17.88,0.75,27.78h-33.15c0.83-18.74,1.58-35.69,2.24-50.83
				c0.25-6.52,0.5-12.95,0.75-19.29c0.25-6.33,0.48-12.09,0.69-17.26s0.37-9.52,0.5-13.05c0.12-3.52,0.19-5.74,0.19-6.64
				c0-3.15-0.5-6.43-1.5-9.84c-1-3.41-2.08-6.58-3.24-9.5c-1.41-3.45-2.99-6.82-4.74-10.12h26.55l8.97,13.5
				c0.75-1.12,1.41-2.12,1.99-2.98s1.2-1.69,1.87-2.47c0.66-0.79,1.47-1.59,2.43-2.42c0.95-0.82,2.18-1.72,3.68-2.7
				c4.74-3,9.51-4.97,14.33-5.9c4.82-0.94,9.8-1.41,14.95-1.41c0.17,0,1.27,0.02,3.3,0.06c2.04,0.04,4.47,0.21,7.29,0.51
				s5.73,0.77,8.72,1.41c2.99,0.64,5.48,1.52,7.48,2.64L298.14,623.25z"/>
			<path class="st1" d="M379.52,547.68c0,2.47-0.52,4.82-1.56,7.03s-2.47,4.14-4.3,5.79c-1.83,1.65-3.95,2.96-6.36,3.94
				c-2.41,0.98-4.99,1.46-7.73,1.46c-2.83,0-5.46-0.49-7.91-1.46c-2.45-0.97-4.59-2.29-6.42-3.94c-1.83-1.65-3.26-3.58-4.3-5.79
				c-1.04-2.21-1.56-4.55-1.56-7.03c0-2.55,0.52-4.93,1.56-7.14s2.47-4.14,4.3-5.79c1.83-1.65,3.97-2.94,6.42-3.88
				s5.09-1.41,7.91-1.41c2.74,0,5.32,0.47,7.73,1.41s4.53,2.23,6.36,3.88s3.26,3.58,4.3,5.79
				C379,542.75,379.52,545.13,379.52,547.68z M376.41,739.09h-33.4l3.36-136.53h26.79L376.41,739.09z"/>
			<path class="st1" d="M558.86,602.56c-1.33,3.37-2.49,6.79-3.49,10.23c-0.92,3-1.74,6.24-2.49,9.73s-1.12,6.8-1.12,9.95
				c0,0.83,0,2.83,0,6.02s-0.02,7.09-0.06,11.7s-0.08,9.71-0.12,15.3c-0.04,5.59-0.11,11.27-0.19,17.04
				c-0.08,13.42-0.21,28.38-0.37,44.87c0,7.87-0.17,15.05-0.5,21.54c-0.33,6.48-0.87,12.35-1.62,17.6s-1.75,9.95-2.99,14.12
				c-1.25,4.16-2.78,7.82-4.61,10.97c-3.24,5.32-7.04,9.58-11.4,12.76c-4.36,3.19-9.12,5.64-14.27,7.37
				c-5.15,1.72-10.66,2.87-16.51,3.43c-5.86,0.56-11.86,0.84-18.01,0.84c-6.07,0-11.07-0.13-15.02-0.39
				c-3.95-0.26-7.33-0.73-10.16-1.41c-2.83-0.68-5.38-1.59-7.66-2.76c-2.29-1.16-4.8-2.64-7.54-4.44c-2.16-1.42-4.24-3.2-6.23-5.34
				c-1.99-2.14-3.78-4.74-5.36-7.82s-2.93-6.66-4.05-10.74c-1.12-4.09-1.93-8.79-2.43-14.11l32.4,8.55c0.5,1.57,0.93,2.87,1.31,3.88
				c0.37,1.01,0.79,1.86,1.25,2.53c0.46,0.68,1,1.24,1.62,1.69s1.43,0.9,2.43,1.35c2.08,1.05,4.8,1.82,8.16,2.31
				c3.36,0.49,7.87,0.73,13.52,0.73c3.16,0,6.52-0.11,10.09-0.34c3.57-0.22,7.02-0.86,10.34-1.91s6.4-2.63,9.22-4.72
				c2.82-2.1,5.11-5.02,6.85-8.77c0.83-1.8,1.5-4.55,1.99-8.27c0.5-3.71,0.87-7.91,1.12-12.6s0.41-9.6,0.5-14.73
				c0.08-5.13,0.08-10.07,0-14.79c-1.83,3.45-4.13,6.45-6.92,9c-2.78,2.55-5.88,4.63-9.28,6.24c-3.41,1.61-7.08,2.81-11.03,3.6
				s-8,1.18-12.15,1.18c-8.23,0-16.06-1.46-23.49-4.39c-7.44-2.92-14.23-6.97-20.38-12.15c-6.07-5.32-10.86-12.24-14.39-20.75
				c-3.53-8.51-5.3-18.88-5.3-31.1c0-5.7,0.25-11.25,0.75-16.65s1.37-10.5,2.62-15.29c1.25-4.8,2.91-9.28,4.98-13.44
				c2.08-4.16,4.65-7.85,7.73-11.08c2.99-3.07,6.19-5.89,9.6-8.43c3.41-2.55,7.02-4.76,10.84-6.64c3.82-1.87,7.85-3.32,12.09-4.33
				s8.64-1.52,13.21-1.52c4.4,0.08,8.1,0.25,11.09,0.51s5.59,0.64,7.79,1.12c2.2,0.49,4.13,1.07,5.79,1.74
				c1.66,0.68,3.36,1.46,5.11,2.36c1.08,0.53,2.33,1.31,3.74,2.36s2.8,2.21,4.17,3.49c1.37,1.28,2.6,2.63,3.68,4.05
				s1.83,2.74,2.24,3.94l6.11-15.18L558.86,602.56L558.86,602.56z M519.1,701.31c1.08-1.35,2.06-2.83,2.93-4.44s1.64-3.54,2.31-5.79
				c0.66-2.25,1.2-4.87,1.62-7.87c0.41-3,0.66-6.56,0.75-10.68c0.08-4.27,0-8.42-0.25-12.43s-0.69-7.8-1.31-11.36
				s-1.52-6.82-2.68-9.78s-2.62-5.49-4.36-7.59c-1.83-2.17-3.82-4.22-5.98-6.13c-2.16-1.91-4.49-3.58-6.98-5
				c-2.49-1.42-5.13-2.55-7.91-3.37s-5.63-1.24-8.54-1.24c-8.97,0-16.37,1.97-22.18,5.9c-5.82,3.94-10.43,9.73-13.83,17.38
				c-0.58,1.28-1.1,3.11-1.56,5.51s-0.85,5.12-1.18,8.15c-0.33,3.04-0.54,6.28-0.62,9.73c-0.08,3.45-0.04,6.86,0.12,10.23
				c0.5,7.72,1.47,14.32,2.93,19.79c1.45,5.47,3.88,9.94,7.29,13.38c3.16,3.3,6.83,5.59,11.03,6.86c4.19,1.28,9.37,1.91,15.52,1.91
				c5.4-0.07,9.82-0.41,13.27-1.01c3.45-0.6,6.36-1.46,8.72-2.59c2.37-1.12,4.36-2.49,5.98-4.11
				C515.8,705.15,517.44,703.33,519.1,701.31z"/>
			<path class="st1" d="M603.6,625.28l4.86-101.33H635l-2.74,86.37c2.66-2.62,5.71-4.74,9.16-6.35c3.45-1.61,7.1-2.85,10.97-3.71
				c3.86-0.86,7.79-1.42,11.78-1.69c3.99-0.26,7.81-0.39,11.47-0.39c11.05,0,20.5,1.58,28.35,4.72c7.85,3.15,13.77,8.25,17.76,15.3
				c1,1.87,1.91,4.31,2.74,7.31s1.51,6.22,2.06,9.67c0.54,3.45,0.98,6.96,1.31,10.52s0.54,6.84,0.62,9.84c0,1.5,0.04,3.84,0.12,7.03
				s0.19,6.88,0.31,11.08s0.25,8.72,0.37,13.55c0.12,4.84,0.23,9.69,0.31,14.56c0.25,11.4,0.54,23.84,0.87,37.34h-33.4l1.99-81.99
				c0-2.55,0.02-5.19,0.06-7.93s0-5.42-0.12-8.04s-0.42-5.1-0.87-7.42c-0.46-2.32-1.14-4.27-2.06-5.85
				c-1.08-1.65-2.43-3.21-4.05-4.67c-1.62-1.46-3.51-2.76-5.67-3.88s-4.59-2.03-7.29-2.7c-2.7-0.68-5.63-1.01-8.79-1.01
				c-10.88,0-20.52,4.01-28.91,12.03c-1.99,1.88-3.55,4.26-4.67,7.14c-1.12,2.89-1.93,6.15-2.43,9.78
				c-0.5,3.64-0.79,7.57-0.87,11.81s-0.12,8.64-0.12,13.21l-0.25,69.5h-33.52L603.6,625.28z"/>
			<path class="st1" d="M762.87,602.56h38.51l3.86-58.82h11.96l12.21,14.28l-1.25,44.54h39.01l10.47,12.37v8.55h-49.48l-0.5,79.18
				c0,3.15,0.31,5.72,0.93,7.7c0.62,1.99,1.62,3.54,2.99,4.67c1.37,1.12,3.18,1.89,5.42,2.31c2.24,0.41,4.99,0.62,8.23,0.62
				c2.66,0,5.8-0.26,9.41-0.79c3.61-0.52,6.87-1.2,9.78-2.03c2.82-0.82,4.86-1.69,6.11-2.59s2.45-1.65,3.61-2.25l8.6,25.3
				c-1.5,0.83-2.85,1.48-4.05,1.97c-1.21,0.49-2.45,0.92-3.74,1.29s-2.7,0.71-4.24,1.01s-3.39,0.64-5.55,1.01
				c-1.74,0.37-3.61,0.75-5.61,1.12c-1.99,0.37-4.2,0.69-6.61,0.96c-2.41,0.26-5.07,0.49-7.98,0.68s-6.23,0.28-9.97,0.28
				c-6.98,0-13.07-0.92-18.26-2.76s-9.12-4.07-11.78-6.69c-2.33-2.17-4.13-4.95-5.42-8.32s-1.89-7.91-1.81-13.61l2.87-89.07h-37.76
				v-20.91H762.87z"/>
			<path class="st1" d="M961.64,739.09h-33.4l3.36-136.53h26.79L961.64,739.09z"/>
			<path class="st1" d="M1009.37,739.09c1.08-17.17,1.99-32.99,2.74-47.46c0.33-6.22,0.66-12.43,1-18.61
				c0.33-6.19,0.6-11.98,0.81-17.38s0.37-10.16,0.5-14.28c0.12-4.12,0.14-7.16,0.06-9.11c-0.08-2.47-0.25-5.4-0.5-8.77
				s-0.54-6.64-0.87-9.78c-0.42-3.6-0.83-7.31-1.25-11.13h26.55l1.87,22.27c1.5-2.17,3.09-4.33,4.8-6.47
				c1.7-2.14,3.49-4.16,5.36-6.07c1.87-1.91,3.8-3.64,5.8-5.17c1.99-1.54,3.99-2.76,5.98-3.66c4.07-1.72,8.41-3.04,13.02-3.94
				s9.37-1.35,14.27-1.35c10.88,0,19.96,1.82,27.23,5.46s12.81,8.87,16.64,15.69c2.08,3.82,3.57,8.34,4.49,13.55
				c0.91,5.21,1.45,11.45,1.62,18.73c0.08,1.8,0.21,4.44,0.37,7.93c0.17,3.49,0.35,7.46,0.56,11.92c0.21,4.46,0.41,9.22,0.62,14.28
				c0.21,5.06,0.44,10.1,0.69,15.13c0.58,11.77,1.2,24.52,1.87,38.24h-33.4c0.5-12.3,0.87-22.87,1.12-31.72s0.46-16.34,0.62-22.49
				c0.17-6.15,0.29-11.13,0.37-14.96c0.08-3.82,0.12-6.86,0.12-9.11s0-3.94,0-5.06s0-2.06,0-2.81c0-5.62-0.19-9.95-0.56-12.99
				c-0.37-3.04-1.02-5.53-1.93-7.48c-0.91-1.87-1.97-3.8-3.18-5.79c-1.21-1.99-2.76-3.8-4.67-5.45s-4.26-3-7.04-4.05
				c-2.79-1.05-6.17-1.58-10.16-1.58c-3.49,0-6.85,0.66-10.09,1.97s-6.32,3-9.22,5.06c-2.91,2.06-5.61,4.33-8.1,6.8
				s-4.74,4.87-6.73,7.2c-2.08,2.4-3.74,4.57-4.99,6.52s-2.33,4.39-3.24,7.31c-0.92,2.63-1.48,5.34-1.68,8.15
				c-0.21,2.81-0.23,6.47-0.06,10.97c0,1.12,0.02,2.96,0.06,5.51s0.12,5.57,0.25,9.05c0.12,3.49,0.25,7.27,0.37,11.36
				c0.12,4.09,0.23,8.15,0.31,12.2c0.33,9.52,0.66,19.98,1,31.38h-33.4V739.09z"/>
			<path class="st1" d="M1242.67,743.93c-11.47,0-21.04-1.35-28.73-4.05s-13.85-6.48-18.51-11.36c-2.16-2.32-4.01-4.56-5.55-6.69
				c-1.54-2.14-2.83-4.35-3.86-6.63c-1.04-2.29-1.87-4.76-2.49-7.42s-1.18-5.64-1.68-8.94h32.65c-0.17,2.77,0.12,5.01,0.87,6.69
				c0.75,1.69,1.83,3.13,3.24,4.33c0.75,0.6,1.68,1.18,2.8,1.74s2.62,1.05,4.49,1.46c1.87,0.41,4.22,0.75,7.04,1.01
				c2.82,0.26,6.23,0.39,10.22,0.39c3.24,0,6.02-0.07,8.35-0.23c2.32-0.15,4.42-0.41,6.29-0.79c1.87-0.37,3.57-0.9,5.11-1.57
				s3.18-1.57,4.92-2.7c1.49-0.9,2.78-1.82,3.86-2.76s1.95-1.95,2.62-3.04c0.66-1.09,1.16-2.29,1.49-3.6s0.5-2.87,0.5-4.67
				c-0.08-2.02-0.6-3.82-1.56-5.4c-0.96-1.57-2.22-2.98-3.8-4.22c-1.58-1.24-3.35-2.31-5.3-3.21c-1.95-0.9-3.93-1.69-5.92-2.36
				c-0.67-0.22-1.58-0.51-2.74-0.84c-1.16-0.34-2.47-0.71-3.93-1.12c-1.46-0.41-2.99-0.82-4.61-1.24c-1.62-0.41-3.22-0.84-4.8-1.29
				c-3.66-0.97-7.64-2.02-11.96-3.15c-2.58-0.6-5.17-1.31-7.79-2.14c-2.62-0.82-5.13-1.69-7.54-2.59s-4.65-1.8-6.73-2.7
				s-3.95-1.8-5.61-2.7c-5.48-3.07-9.39-6.56-11.71-10.46c-2.33-3.9-3.7-8.7-4.11-14.4c-0.17-3.3-0.04-6.24,0.37-8.83
				s1.18-4.99,2.3-7.2s2.62-4.29,4.49-6.24s4.09-3.9,6.67-5.85c5.23-4.05,11.07-6.9,17.51-8.55c6.44-1.65,14.06-2.47,22.87-2.47
				c11.47,0,20.81,0.96,28.04,2.87s13.17,5,17.82,9.28c2.91,2.63,5.38,5.85,7.42,9.67c2.03,3.82,3.05,7.99,3.05,12.48h-26.05
				c0.17-1.72-0.04-3.34-0.62-4.84s-1.7-3.04-3.36-4.61c-2.08-2.1-5.09-3.86-9.03-5.29c-3.95-1.42-9.53-2.14-16.76-2.14
				c-4.99,0-9.28,0.49-12.9,1.46c-3.61,0.98-6.71,2.25-9.28,3.82c-1.25,0.9-2.35,1.74-3.3,2.53c-0.96,0.79-1.74,1.65-2.37,2.59
				c-0.62,0.94-1.08,2.02-1.37,3.26s-0.44,2.76-0.44,4.55c0,3,0.79,5.42,2.37,7.25c1.58,1.84,3.94,3.73,7.1,5.68
				c2.32,1.5,4.74,2.66,7.23,3.49s5.61,1.65,9.35,2.47l16.08,3.71c9.39,1.95,17.28,3.92,23.68,5.9c6.4,1.99,11.51,4.29,15.33,6.92
				c2.16,1.43,4.09,3.06,5.8,4.89c1.7,1.84,3.16,3.97,4.36,6.41s2.08,5.19,2.62,8.27c0.54,3.07,0.73,6.56,0.56,10.46
				c-0.5,7.65-2.72,14.27-6.67,19.85c-3.95,5.59-8.97,10.22-15.08,13.89c-6.11,3.67-12.94,6.41-20.5,8.21
				C1257.91,743.03,1250.31,743.93,1242.67,743.93z"/>
			<path class="st1" d="M1385.74,739.09h-33.4l3.36-136.53h26.79L1385.74,739.09z"/>
			<path class="st1" d="M1568.19,602.56c-1.33,3.37-2.49,6.79-3.49,10.23c-0.92,3-1.74,6.24-2.49,9.73s-1.12,6.8-1.12,9.95
				c0,0.83,0,2.83,0,6.02s-0.02,7.09-0.06,11.7s-0.08,9.71-0.12,15.3c-0.04,5.59-0.1,11.27-0.19,17.04
				c-0.08,13.42-0.21,28.38-0.37,44.87c0,7.87-0.17,15.05-0.5,21.54c-0.33,6.48-0.87,12.35-1.62,17.6s-1.74,9.95-2.99,14.12
				c-1.25,4.16-2.79,7.82-4.61,10.97c-3.24,5.32-7.04,9.58-11.4,12.76c-4.36,3.19-9.12,5.64-14.27,7.37
				c-5.15,1.72-10.65,2.87-16.51,3.43s-11.86,0.84-18.01,0.84c-6.07,0-11.07-0.13-15.02-0.39c-3.95-0.26-7.33-0.73-10.16-1.41
				c-2.83-0.68-5.38-1.59-7.66-2.76c-2.29-1.16-4.8-2.64-7.54-4.44c-2.16-1.42-4.24-3.2-6.23-5.34s-3.78-4.74-5.36-7.82
				s-2.93-6.66-4.05-10.74c-1.12-4.09-1.93-8.79-2.43-14.11l32.4,8.55c0.5,1.57,0.93,2.87,1.31,3.88c0.37,1.01,0.79,1.86,1.25,2.53
				c0.46,0.68,1,1.24,1.62,1.69s1.43,0.9,2.43,1.35c2.08,1.05,4.8,1.82,8.16,2.31c3.37,0.49,7.87,0.73,13.52,0.73
				c3.16,0,6.52-0.11,10.09-0.34c3.57-0.22,7.02-0.86,10.34-1.91s6.4-2.63,9.22-4.72c2.82-2.1,5.11-5.02,6.85-8.77
				c0.83-1.8,1.5-4.55,1.99-8.27c0.5-3.71,0.87-7.91,1.12-12.6s0.41-9.6,0.5-14.73c0.08-5.13,0.08-10.07,0-14.79
				c-1.83,3.45-4.13,6.45-6.92,9c-2.78,2.55-5.88,4.63-9.28,6.24c-3.41,1.61-7.08,2.81-11.03,3.6c-3.95,0.79-8,1.18-12.15,1.18
				c-8.22,0-16.06-1.46-23.49-4.39c-7.44-2.92-14.23-6.97-20.38-12.15c-6.07-5.32-10.86-12.24-14.39-20.75s-5.3-18.88-5.3-31.1
				c0-5.7,0.25-11.25,0.75-16.65s1.37-10.5,2.62-15.29c1.25-4.8,2.91-9.28,4.99-13.44s4.65-7.85,7.73-11.08
				c2.99-3.07,6.19-5.89,9.6-8.43c3.41-2.55,7.02-4.76,10.84-6.64c3.82-1.87,7.85-3.32,12.09-4.33s8.64-1.52,13.21-1.52
				c4.4,0.08,8.1,0.25,11.09,0.51s5.59,0.64,7.79,1.12c2.2,0.49,4.13,1.07,5.8,1.74c1.66,0.68,3.36,1.46,5.11,2.36
				c1.08,0.53,2.32,1.31,3.74,2.36c1.41,1.05,2.8,2.21,4.17,3.49c1.37,1.28,2.6,2.63,3.68,4.05c1.08,1.42,1.83,2.74,2.24,3.94
				l6.11-15.18L1568.19,602.56L1568.19,602.56z M1528.43,701.31c1.08-1.35,2.06-2.83,2.93-4.44s1.64-3.54,2.31-5.79
				c0.66-2.25,1.2-4.87,1.62-7.87c0.41-3,0.66-6.56,0.75-10.68c0.08-4.27,0-8.42-0.25-12.43s-0.69-7.8-1.31-11.36
				c-0.62-3.56-1.52-6.82-2.68-9.78s-2.62-5.49-4.36-7.59c-1.83-2.17-3.82-4.22-5.98-6.13c-2.16-1.91-4.49-3.58-6.98-5
				s-5.13-2.55-7.91-3.37c-2.79-0.82-5.63-1.24-8.54-1.24c-8.97,0-16.37,1.97-22.18,5.9c-5.82,3.94-10.43,9.73-13.83,17.38
				c-0.58,1.28-1.1,3.11-1.56,5.51c-0.46,2.4-0.85,5.12-1.18,8.15c-0.33,3.04-0.54,6.28-0.62,9.73c-0.08,3.45-0.04,6.86,0.12,10.23
				c0.5,7.72,1.47,14.32,2.93,19.79c1.45,5.47,3.88,9.94,7.29,13.38c3.16,3.3,6.83,5.59,11.03,6.86c4.19,1.28,9.37,1.91,15.52,1.91
				c5.4-0.07,9.82-0.41,13.27-1.01c3.45-0.6,6.36-1.46,8.72-2.59c2.37-1.12,4.36-2.49,5.98-4.11
				C1525.13,705.15,1526.77,703.33,1528.43,701.31z"/>
			<path class="st1" d="M1612.93,625.28l4.86-101.33h26.55l-2.74,86.37c2.66-2.62,5.71-4.74,9.16-6.35
				c3.45-1.61,7.1-2.85,10.97-3.71c3.86-0.86,7.79-1.42,11.78-1.69c3.99-0.26,7.81-0.39,11.47-0.39c11.05,0,20.5,1.58,28.35,4.72
				s13.77,8.25,17.76,15.3c1,1.87,1.91,4.31,2.74,7.31s1.51,6.22,2.06,9.67c0.54,3.45,0.98,6.96,1.31,10.52
				c0.33,3.56,0.54,6.84,0.62,9.84c0,1.5,0.04,3.84,0.12,7.03s0.19,6.88,0.31,11.08c0.12,4.2,0.25,8.72,0.37,13.55
				c0.12,4.84,0.23,9.69,0.31,14.56c0.25,11.4,0.54,23.84,0.87,37.34h-33.4l1.99-81.99c0-2.55,0.02-5.19,0.06-7.93s0-5.42-0.12-8.04
				s-0.42-5.1-0.87-7.42c-0.46-2.32-1.14-4.27-2.06-5.85c-1.08-1.65-2.43-3.21-4.05-4.67c-1.62-1.46-3.51-2.76-5.67-3.88
				s-4.59-2.03-7.29-2.7c-2.7-0.68-5.63-1.01-8.79-1.01c-10.89,0-20.52,4.01-28.91,12.03c-1.99,1.88-3.55,4.26-4.67,7.14
				c-1.12,2.89-1.93,6.15-2.43,9.78c-0.5,3.64-0.79,7.57-0.87,11.81s-0.12,8.64-0.12,13.21l-0.25,69.5h-33.52L1612.93,625.28z"/>
			<path class="st1" d="M1772.2,602.56h38.51l3.86-58.82h11.96l12.21,14.28l-1.25,44.54h39.01l10.47,12.37v8.55h-49.48l-0.5,79.18
				c0,3.15,0.31,5.72,0.93,7.7c0.62,1.99,1.62,3.54,2.99,4.67c1.37,1.12,3.18,1.89,5.42,2.31c2.24,0.41,4.98,0.62,8.22,0.62
				c2.66,0,5.8-0.26,9.41-0.79c3.61-0.52,6.87-1.2,9.78-2.03c2.82-0.82,4.86-1.69,6.11-2.59s2.45-1.65,3.61-2.25l8.6,25.3
				c-1.49,0.83-2.85,1.48-4.05,1.97c-1.21,0.49-2.45,0.92-3.74,1.29s-2.7,0.71-4.24,1.01s-3.39,0.64-5.55,1.01
				c-1.74,0.37-3.61,0.75-5.61,1.12c-1.99,0.37-4.2,0.69-6.61,0.96c-2.41,0.26-5.07,0.49-7.98,0.68s-6.23,0.28-9.97,0.28
				c-6.98,0-13.07-0.92-18.26-2.76c-5.19-1.84-9.12-4.07-11.78-6.69c-2.33-2.17-4.13-4.95-5.42-8.32s-1.89-7.91-1.81-13.61
				l2.87-89.07h-37.76v-20.91H1772.2z"/>
		</g>
	</g>
	<g>
		<g>
			<g>
				<path class="st2" d="M1323.52,565.9"/>
			</g>
		</g>
		<g>
			<g>
				<path class="st2" d="M1250.54,398.15"/>
			</g>
		</g>
		<g>
			<g>
				<path class="st2" d="M1192.8,358.82"/>
			</g>
		</g>
		<g>
			<g>
				<path class="st2" d="M1180.56,353.42"/>
			</g>
		</g>
		<g>
			<g id="_x3C_Radial_Repeat_x3E__00000125586993138461405500000014950950163037801350_">
				<g>
					<polyline class="st3" points="1045.45,340.86 1051.87,227.95 1085.96,335.78 					"/>
				</g>
			</g>
			<g id="_x3C_Radial_Repeat_x3E__00000173879213924176378940000017020324072843584661_">
				<g>
					<polyline class="st3" points="1115.38,336.6 1155.45,230.85 1155.54,343.94 					"/>
				</g>
			</g>
			<g id="_x3C_Radial_Repeat_x3E__00000032608530682383061980000017603041463648994953_">
				<g>
					<polyline class="st3" points="1183.35,353.57 1253.37,264.77 1219.45,372.65 					"/>
				</g>
			</g>
			<g id="_x3C_Radial_Repeat_x3E__00000064319834985589944920000009430288846153494694_">
				<g>
					<polyline class="st3" points="1243.07,390.2 1336.56,326.56 1271.77,419.25 					"/>
				</g>
			</g>
			<g id="_x3C_Radial_Repeat_x3E__00000156588863319959338890000000466683422337469586_">
				<g>
					<polyline class="st3" points="1289.02,443.08 1397.31,410.5 1307.65,479.42 					"/>
				</g>
			</g>
		</g>
		<g>
			<g>
				<path class="st4" d="M1288.33,443.1l18.74,36.94C1301.92,467.09,1295.63,454.74,1288.33,443.1z"/>
			</g>
			<g>
				<path class="st5" d="M1288.33,443.1l18.74,36.94C1301.92,467.09,1295.63,454.74,1288.33,443.1z"/>
			</g>
		</g>
		<g>
			<g>
				<path class="st4" d="M1242.81,390.4l28.96,28.85C1262.96,408.83,1253.27,399.18,1242.81,390.4z"/>
			</g>
			<g>
				<path class="st5" d="M1242.81,390.4l28.96,28.85C1262.96,408.83,1253.27,399.18,1242.81,390.4z"/>
			</g>
		</g>
		<g>
			<g>
				<path class="st4" d="M1219.7,373.04c-11.44-7.51-23.58-14.03-36.29-19.43L1219.7,373.04z"/>
			</g>
			<g>
				<path class="st5" d="M1219.7,373.04c-11.44-7.51-23.58-14.03-36.29-19.43L1219.7,373.04z"/>
			</g>
		</g>
		<g>
			<g>
				<path class="st4" d="M1155.81,343.94c-12.85-3.6-26.14-6.1-39.75-7.4L1155.81,343.94z"/>
			</g>
			<g>
				<path class="st5" d="M1155.81,343.94c-12.85-3.6-26.14-6.1-39.75-7.4L1155.81,343.94z"/>
			</g>
		</g>
		<g>
			<g>
				<path class="st4" d="M1045.34,340.74l41.35-5.11c-0.99,0.03-1.99,0.07-2.98,0.11C1070.59,336.31,1057.77,338.01,1045.34,340.74z
					"/>
			</g>
			<g>
				<path class="st5" d="M1045.34,340.74l41.35-5.11c-0.99,0.03-1.99,0.07-2.98,0.11C1070.59,336.31,1057.77,338.01,1045.34,340.74z
					"/>
			</g>
		</g>
		<g>
			<g>
				<path class="st4" d="M903.04,436.61c-7.55,11.27-14.12,23.22-19.6,35.73L903.04,436.61z"/>
			</g>
			<g>
				<path class="st5" d="M903.04,436.61c-7.55,11.27-14.12,23.22-19.6,35.73L903.04,436.61z"/>
			</g>
		</g>
		<g>
			<g>
				<path class="st4" d="M873.49,499.68c-3.8,12.97-6.48,26.38-7.93,40.12L873.49,499.68z"/>
			</g>
			<g>
				<path class="st5" d="M873.49,499.68c-3.8,12.97-6.48,26.38-7.93,40.12L873.49,499.68z"/>
			</g>
		</g>
		<g>
			<g id="_x3C_Radial_Repeat_x3E__00000172412292513697729200000011806825527635415942_">
				<g>
					<polyline class="st6" points="865.15,539.14 760.4,496.52 873.46,499.16 					"/>
				</g>
			</g>
			<g id="_x3C_Radial_Repeat_x3E__00000070825385460350658360000007554145860709965480_">
				<g>
					<polyline class="st6" points="883.8,471.49 796.71,399.35 903.74,435.86 					"/>
				</g>
			</g>
		</g>
	</g>
	<circle class="st1" cx="1369.04" cy="559.06" r="20.39"/>
	<text transform="matrix(1.1907 0 0 1 628.1396 816.0215)" class="st1 st7 st8">support network</text>
</g>
<g id="Layer_2_00000126325191404203993130000003049636581643017121_">
	<path class="st9" d="M1065.25,565.45l-176.02-0.6c0.05-13.89,1.54-32.84,7.59-54.4c6.13-21.86,14.88-39,22.16-50.96
		C967.74,494.81,1016.49,530.13,1065.25,565.45"/>
</g>
<g id="Layer_3">
	<path class="st10" d="M891.76,390.27c8.74-11.74,22.14-27.13,41.45-41.63c17.96-13.49,35.15-21.79,48.22-26.94
		c18.81,58.38,37.62,116.76,56.42,175.14"/>
</g>
<g id="Layer_4">
	<path class="st11" d="M1094.23,544.77l-56.7-175.92c13.66-3.9,32.72-7.82,55.66-7.94c24.12-0.12,44.07,4.01,58.11,8.05
		L1094.23,544.77z"/>
</g>
<g id="Layer_5">
	<path class="st12" d="M1111.83,550.13l57.24-175.14c13.12,5.16,30.47,13.54,48.58,27.21c19.06,14.38,32.32,29.6,40.99,41.22
		L1111.83,550.13z"/>
</g>
<g id="Layer_6">
	<path class="st13" d="M1245.96,565.9c-40.74,0-81.48,0-122.21,0l145.75-106.41c7.09,11.65,15.34,27.84,21.37,48.22
		c6.84,23.15,8.39,43.51,8.38,58.19h-175.49"/>
</g>
</svg>
